<svg width="32" height="32" viewBox="0 0 32 32" fill="none" xmlns="http://www.w3.org/2000/svg">
    <path d="M32 23.36C32 21.772 30.7383 20.48 29.1875 20.48H27.5506C27.6547 20.1795 27.7119 19.8566 27.7119 19.52V16.4055L27.9684 16.2538C29.3114 15.4598 29.7733 13.695 28.9979 12.3197C28.5108 11.4557 27.6496 10.9482 26.7437 10.8868C26.2234 10.0192 25.5166 9.2807 24.6721 8.72954C23.9757 8.27501 23.2062 7.96326 22.4024 7.80384C23.0492 6.9808 23.4375 5.93626 23.4375 4.8C23.4375 2.15328 21.3347 0 18.75 0C16.1653 0 14.0625 2.15328 14.0625 4.8C14.0625 5.92122 14.4409 6.95309 15.0724 7.77101C11.9644 8.29869 9.58687 11.0701 9.58687 14.4V16.96C9.58687 17.5363 9.72369 18.0803 9.96456 18.5609C8.95431 18.5706 8.03844 18.9911 7.36881 19.6673C6.63131 18.6107 5.42456 17.92 4.0625 17.92C1.82244 17.92 0 19.7862 0 22.08C0 23.2707 0.491875 24.3454 1.2775 25.1044C0.498938 25.7503 0 26.7364 0 27.84V31.04C0 31.5702 0.41975 32 0.9375 32H31.0625C31.5802 32 32 31.5702 32 31.04V27.84C32 26.9273 31.6589 26.0947 31.1005 25.4686C31.6532 24.9423 32 24.192 32 23.36ZM25.8369 19.52C25.8369 20.0493 25.4163 20.48 24.8994 20.48C24.3824 20.48 23.9619 20.0493 23.9619 19.52C23.9619 19.5192 23.9618 19.5183 23.9618 19.5175V18.6226L25.8369 17.514V19.52ZM18.75 1.92C20.3008 1.92 21.5625 3.21197 21.5625 4.8C21.5625 6.38803 20.3008 7.68 18.75 7.68C17.1992 7.68 15.9375 6.38803 15.9375 4.8C15.9375 3.21197 17.1992 1.92 18.75 1.92ZM11.4619 14.4C11.4619 11.7533 13.5647 9.6 16.1494 9.6H21.1494C22.6242 9.6 23.9714 10.2892 24.8481 11.4476L19.7433 14.4656C19.4266 14.6528 19.1546 14.9008 18.9363 15.19C18.4941 14.8933 17.9662 14.7201 17.3993 14.7201H15.2119V13.7601C15.2119 13.2299 14.7921 12.8001 14.2744 12.8001C13.7566 12.8001 13.3369 13.2299 13.3369 13.7601V15.6801C13.3369 16.2102 13.7566 16.6401 14.2744 16.6401H17.3993C17.9162 16.6401 18.3368 17.0707 18.3368 17.6001C18.3368 18.1294 17.9162 18.5601 17.3993 18.5601H13.0244C12.1628 18.5601 11.4619 17.8423 11.4619 16.9601V14.4ZM10 20.48H19.2743C19.792 20.48 20.2118 20.0502 20.2118 19.52C20.2118 19.52 20.2197 17.0035 20.2198 16.9609C20.2201 16.6101 20.3925 16.2988 20.6808 16.1283L26.0935 12.9283C26.5412 12.6636 27.1156 12.8212 27.3741 13.2797C27.6326 13.7381 27.4787 14.3263 27.031 14.591L22.5556 17.237C22.2655 17.4085 22.0868 17.7254 22.0868 18.0684V21.44C22.0868 21.9702 22.5066 22.4 23.0243 22.4H29.1875C29.7044 22.4 30.125 22.8307 30.125 23.36C30.125 23.8893 29.7044 24.32 29.1875 24.32H10C8.96613 24.32 8.125 23.4587 8.125 22.4C8.125 21.3413 8.96613 20.48 10 20.48ZM4.0625 19.84C5.26869 19.84 6.25 20.8449 6.25 22.08C6.25 23.3151 5.26869 24.32 4.0625 24.32C2.85631 24.32 1.875 23.3151 1.875 22.08C1.875 20.8449 2.85631 19.84 4.0625 19.84ZM30.125 30.08H1.875V27.84C1.875 26.9578 2.57594 26.24 3.4375 26.24H28.5625C29.4241 26.24 30.125 26.9578 30.125 27.84V30.08Z" fill="#D186FF"/>
</svg>
