<svg width="33" height="33" viewBox="0 0 33 33" fill="none" xmlns="http://www.w3.org/2000/svg">
    <path d="M33 22.5631C33 23.379 32.6822 24.1462 32.1052 24.723L30.574 26.2541L31.354 27.034C31.3584 27.0383 31.3628 27.0426 31.3671 27.0469C32.5581 28.2378 32.5581 30.1758 31.3671 31.3671C30.7901 31.9441 30.0229 32.2618 29.207 32.2618C28.3911 32.2618 27.6239 31.9441 27.0467 31.3672C27.0418 31.3623 27.0369 31.3573 27.0321 31.3523L26.2539 30.5742L24.7227 32.1053C24.1458 32.6822 23.3787 33 22.5627 33C21.7466 33 20.9794 32.6822 20.4025 32.1052C20.0997 31.8024 19.8744 31.4513 19.7256 31.0764C19.2509 31.3675 18.704 31.5236 18.1331 31.5236C17.3171 31.5236 16.5498 31.2058 15.9726 30.6286C14.7819 29.4377 14.7819 27.4998 15.9727 26.3086L18.9803 23.3012L9.69761 14.0188L6.6899 17.0264C6.11302 17.6032 5.34587 17.921 4.52999 17.921C3.71398 17.921 2.94676 17.6032 2.36943 17.0261C1.3536 16.0102 1.20497 14.4512 1.92217 13.2755C1.54143 13.1238 1.19169 12.8954 0.893132 12.5967C-0.297689 11.4058 -0.297754 9.46799 0.893197 8.27683L2.42422 6.74587L1.63141 5.95309C1.0544 5.37611 0.736569 4.60899 0.736569 3.79301C0.736569 2.97703 1.0544 2.20991 1.63134 1.63311C2.20829 1.05606 2.97551 0.738247 3.79158 0.738247C4.60024 0.738247 5.36089 1.05039 5.93603 1.61752C5.94138 1.62261 5.94666 1.62777 5.95188 1.63305L6.74456 2.42569L8.27571 0.894608C8.85252 0.317753 9.61968 6.48499e-05 10.4358 0H10.4359C11.252 0 12.0192 0.317814 12.5964 0.894928C12.899 1.1976 13.1243 1.54868 13.2732 1.92335C13.7478 1.6324 14.2944 1.47643 14.8652 1.47637H14.8654C15.6812 1.47637 16.4486 1.79412 17.0257 2.37117C17.6027 2.94816 17.9204 3.71527 17.9204 4.53125C17.9204 5.3473 17.6026 6.11442 17.0257 6.69128L14.018 9.69886L23.3009 18.9812L26.3086 15.9738C26.8856 15.3969 27.6527 15.0792 28.4687 15.0792H28.4689C29.2846 15.0792 30.0519 15.3969 30.6287 15.9738C31.2059 16.5507 31.5238 17.3179 31.5238 18.1339C31.5238 18.7043 31.368 19.2506 31.0774 19.725C31.4576 19.8767 31.807 20.1049 32.1054 20.4031C32.6823 20.98 33 21.7472 33 22.5631ZM4.5976 3.01338C4.59315 3.00906 4.58864 3.00462 4.5842 3.00017C4.37252 2.7885 4.09104 2.67184 3.79158 2.67184C3.49212 2.67184 3.21051 2.7885 2.99865 3.00036C2.78691 3.21209 2.67024 3.49356 2.67024 3.79301C2.67024 4.09246 2.78691 4.37405 2.99871 4.58585L3.79139 5.37849L5.3772 3.79294L4.5976 3.01338ZM27.6212 29.2069L28.4134 29.9989C28.4171 30.0027 28.4207 30.0063 28.4243 30.0101C28.6351 30.2154 28.9124 30.3282 29.207 30.3282C29.5065 30.3282 29.7881 30.2116 29.9997 30C30.4338 29.5657 30.437 28.8611 30.0089 28.4233C30.0056 28.4201 30.0022 28.4168 29.999 28.4135L29.2068 27.6214L28.4141 28.4142L27.6212 29.2069ZM21.7699 30.7381C21.9816 30.9498 22.2631 31.0664 22.5627 31.0664C22.8622 31.0664 23.1437 30.9498 23.3555 30.738L27.0467 27.0468L28.5232 25.5704C28.5233 25.5703 28.5234 25.5702 28.5236 25.57L30.738 23.3557C30.9497 23.1439 31.0664 22.8625 31.0664 22.5631C31.0664 22.2636 30.9497 21.982 30.7381 21.7703C30.5262 21.5585 30.2446 21.4419 29.9451 21.4419C29.6461 21.4419 29.365 21.5582 29.1534 21.7692L21.7682 29.1539C21.3328 29.5911 21.3332 30.3013 21.7699 30.7381ZM11.2289 2.26211C11.0171 2.05032 10.7354 1.9336 10.4358 1.9336C10.1362 1.93366 9.85462 2.05026 9.64295 2.26186L7.42863 4.47608C7.42844 4.47627 7.42831 4.47647 7.42818 4.4766L6.95836 4.94633L2.26063 9.64394C1.82355 10.0811 1.82349 10.7924 2.26063 11.2296C2.47243 11.4415 2.75397 11.5581 3.0535 11.5581C3.35257 11.5581 3.63367 11.4417 3.8454 11.2304L11.2329 3.84309C11.6656 3.40558 11.6645 2.69769 11.2289 2.26211ZM15.9866 4.53125C15.9866 4.2318 15.87 3.95008 15.6583 3.73841C15.4464 3.52662 15.1648 3.40996 14.8652 3.40996C14.8652 3.40996 14.8652 3.40996 14.8652 3.40996C14.5656 3.40996 14.284 3.52662 14.0722 3.73835L12.6044 5.20608C12.6016 5.20891 12.599 5.21194 12.5962 5.21478L5.21348 12.5969L5.21328 12.5971L3.73692 14.0734C3.29978 14.5104 3.29978 15.2217 3.73679 15.6588C3.94873 15.8706 4.23046 15.9874 4.53005 15.9874C4.82945 15.9874 5.11093 15.8708 5.3226 15.6591L9.01334 11.9686C9.01353 11.9684 9.01373 11.9681 9.01399 11.9679L11.7824 9.19973L15.6584 5.3239C15.87 5.11224 15.9866 4.83077 15.9866 4.53125ZM12.6505 11.066L11.8576 11.8588L11.0649 12.6516L20.3477 21.934L21.9336 20.3483L12.6505 11.066ZM29.2614 17.3411C29.0496 17.1294 28.7682 17.0127 28.4688 17.0127C28.1692 17.0127 27.8875 17.1294 27.6757 17.3411L23.9869 21.0295C23.9861 21.0304 23.9855 21.0313 23.9846 21.0321L21.0314 23.985C21.0309 23.9854 21.0304 23.9858 21.03 23.9863L17.3402 27.6758C16.9031 28.113 16.9031 28.8245 17.34 29.2616C17.5519 29.4734 17.8335 29.5901 18.1331 29.5901C18.4326 29.5901 18.7143 29.4734 18.9261 29.2616L20.3983 27.7895C20.3997 27.7881 20.4009 27.7866 20.4024 27.7852L27.7851 20.403C27.7858 20.4023 27.7865 20.4016 27.7872 20.4011L29.2616 18.9268C29.4734 18.715 29.5901 18.4334 29.5901 18.1339C29.59 17.8344 29.4734 17.5529 29.2614 17.3411Z" fill="#FE916E"/>
</svg>
