<svg width="32" height="36" viewBox="0 0 32 36" fill="none" xmlns="http://www.w3.org/2000/svg">
    <path d="M19.3947 21.6885L15.3462 20.6765L15.097 19.4285H19.4285C19.58 19.4285 19.7253 19.3683 19.8325 19.2611C19.9397 19.1539 19.9999 19.0086 19.9999 18.8571V13.8891C20.3288 13.4514 20.5067 12.9186 20.5067 12.3711C20.5067 11.8236 20.3288 11.2908 19.9999 10.8531V6.05999C20.0006 5.35757 19.8337 4.66512 19.5128 4.04025C19.192 3.41538 18.7266 2.87616 18.1553 2.46744C17.754 1.71921 17.1566 1.09428 16.4272 0.659621C15.6978 0.224962 14.8639 -0.0030451 14.0148 3.07126e-05H11.4285C9.45903 0.00229925 7.57087 0.785673 6.17825 2.1783C4.78562 3.57093 4.00224 5.45908 3.99998 7.42855V10.6965C3.5902 11.1581 3.36389 11.7539 3.36389 12.3711C3.36389 12.9883 3.5902 13.5841 3.99998 14.0457V18.8571C3.99998 19.0086 4.06018 19.1539 4.16734 19.2611C4.2745 19.3683 4.41985 19.4285 4.5714 19.4285H8.9028L8.65366 20.6765L4.60511 21.6885C3.28979 22.017 2.12208 22.7759 1.28765 23.8445C0.453224 24.913 -1.67652e-05 26.2298 4.65111e-10 27.5856V34.8569C4.65111e-10 35.0085 0.0602036 35.1538 0.167367 35.261C0.27453 35.3682 0.419874 35.4284 0.571425 35.4284H23.4284C23.58 35.4284 23.7253 35.3682 23.8325 35.261C23.9396 35.1538 23.9999 35.0085 23.9999 34.8569V27.5856C23.9999 26.2298 23.5466 24.913 22.7122 23.8445C21.8778 22.7759 20.7101 22.017 19.3947 21.6885ZM4.50683 12.3708C4.50765 12.036 4.62602 11.7122 4.84127 11.4558C5.05651 11.1994 5.35497 11.0267 5.68454 10.968C5.73728 11.9239 5.88428 12.8723 6.12339 13.7994H5.93539C5.55651 13.7994 5.19315 13.6489 4.92525 13.381C4.65734 13.113 4.50683 12.7497 4.50683 12.3708ZM6.79253 10.1423V9.93997C7.11479 9.3421 7.56927 8.82569 8.12134 8.43008C8.67341 8.03447 9.3085 7.7701 9.97822 7.65712L11.4405 7.4137C12.1922 7.28535 12.9028 6.98068 13.5141 6.52467C14.1254 6.06867 14.6199 5.4743 14.957 4.79029L14.9868 4.83486C16.0031 6.35702 16.7134 8.06242 17.0782 9.85597V10.1417C17.0732 13.1255 16.0789 16.0234 14.2508 18.3816C13.9778 18.7352 13.6272 19.0212 13.2259 19.2175C12.8247 19.4138 12.3837 19.5151 11.9371 19.5136C11.4901 19.5152 11.0487 19.4139 10.6471 19.2176C10.2455 19.0213 9.89445 18.7353 9.62108 18.3816C7.79281 16.0234 6.79805 13.1256 6.79253 10.1417V10.1423ZM18.1862 10.9685C18.5337 11.0352 18.8441 11.2285 19.0573 11.511C19.2705 11.7935 19.3712 12.1451 19.3399 12.4976C19.3087 12.8501 19.1478 13.1784 18.8883 13.4191C18.6287 13.6597 18.2892 13.7954 17.9353 13.7999H17.7473C17.9862 12.8726 18.1332 11.9246 18.1862 10.9685ZM13.9091 24.1204C13.3148 24.4117 12.6617 24.5632 11.9999 24.5632C11.3381 24.5632 10.6851 24.4117 10.0908 24.1204L9.72108 21.1639L9.92908 20.125C10.5403 20.473 11.2315 20.6562 11.9348 20.6565C12.684 20.6564 13.4185 20.449 14.0571 20.057L14.2782 21.161L13.9091 24.1204ZM11.9999 25.7142C12.5944 25.7119 13.1846 25.6121 13.7468 25.4187L12.6382 34.2855H11.3616L10.2531 25.4187C10.8153 25.6121 11.4054 25.7119 11.9999 25.7142ZM15.7216 18.2856C16.4219 17.2476 16.986 16.124 17.3999 14.9422H17.9353C18.2509 14.9406 18.5634 14.8803 18.857 14.7645V18.2856H15.7216ZM11.4285 1.14288H14.0148C14.6767 1.14088 15.3259 1.32435 15.8889 1.67249C16.4518 2.02062 16.906 2.51951 17.1999 3.11258C17.2446 3.20142 17.3116 3.2772 17.3942 3.33258C17.8442 3.6311 18.2133 4.0364 18.4686 4.51232C18.7239 4.98823 18.8573 5.51994 18.857 6.05999V9.97768C18.6523 9.90103 18.4385 9.85091 18.221 9.82854V9.7994C18.2211 9.76101 18.2172 9.72272 18.2096 9.68511C17.8197 7.72514 17.0477 5.86112 15.9376 4.19943L15.2679 3.20001C15.2053 3.10591 15.1161 3.0325 15.0117 2.98907C14.9074 2.94565 14.7924 2.93416 14.6815 2.95606C14.5706 2.97796 14.4687 3.03226 14.3887 3.1121C14.3086 3.19194 14.2541 3.29373 14.2319 3.40458C14.0836 4.12908 13.7198 4.79184 13.1882 5.30597C12.6566 5.8201 11.9821 6.16161 11.2531 6.2857L9.7908 6.5297C8.9216 6.67585 8.0991 7.02485 7.39002 7.54837C6.68094 8.07188 6.10526 8.75518 5.70968 9.54283C5.67014 9.62216 5.6496 9.70961 5.64968 9.79825V9.82854C5.47738 9.84714 5.30751 9.88372 5.14283 9.93768V7.42855C5.14479 5.76209 5.80766 4.16445 6.98603 2.98608C8.1644 1.80772 9.76204 1.14485 11.4285 1.14288ZM5.14283 14.8045C5.39799 14.8923 5.66556 14.9388 5.93539 14.9422H6.47082C6.88474 16.124 7.44878 17.2476 8.14909 18.2856H5.14283V14.8045ZM1.14285 27.5856C1.14286 26.4848 1.51084 25.4156 2.18828 24.5479C2.86573 23.6803 3.81376 23.064 4.88168 22.797L7.0531 22.2542C6.54461 23.8747 6.28584 25.5632 6.28568 27.2616V27.5096C5.74702 27.6486 5.27757 27.9794 4.96534 28.4399C4.65311 28.9003 4.51952 29.4588 4.58962 30.0107C4.65972 30.5626 4.92869 31.07 5.34612 31.4377C5.76355 31.8055 6.30078 32.0084 6.8571 32.0084C7.41342 32.0084 7.95065 31.8055 8.36808 31.4377C8.78551 31.07 9.05448 30.5626 9.12458 30.0107C9.19468 29.4588 9.0611 28.9003 8.74886 28.4399C8.43663 27.9794 7.96718 27.6486 7.42853 27.5096V27.2616C7.42835 25.4414 7.74687 23.6353 8.36966 21.925L8.65537 21.853L10.2097 34.2855H4.93597C4.32228 32.9456 4.0031 31.4896 3.99998 30.0158V29.7141H2.85713V30.0158C2.86034 31.4794 3.14392 32.9287 3.69255 34.2855H1.14285V27.5856ZM6.8571 28.5713C7.08313 28.5713 7.30409 28.6383 7.49203 28.7639C7.67998 28.8895 7.82646 29.0679 7.91296 29.2768C7.99946 29.4856 8.02209 29.7154 7.97799 29.9371C7.93389 30.1588 7.82505 30.3624 7.66522 30.5222C7.50539 30.6821 7.30175 30.7909 7.08006 30.835C6.85837 30.8791 6.62858 30.8565 6.41975 30.77C6.21092 30.6835 6.03243 30.537 5.90686 30.3491C5.78128 30.1611 5.71425 29.9402 5.71425 29.7141C5.71425 29.411 5.83466 29.1203 6.04898 28.906C6.26331 28.6917 6.554 28.5713 6.8571 28.5713ZM22.857 34.2855H20.3073C20.8559 32.9287 21.1395 31.4794 21.1427 30.0158V29.7141H19.9999V30.0158C19.9967 31.4896 19.6776 32.9456 19.0639 34.2855H13.7902L15.3439 21.853L15.5965 21.9165C16.1843 23.5292 16.5098 25.2258 16.5605 26.9416C16.0735 27.0692 15.6425 27.3543 15.3344 27.7524C15.0263 28.1505 14.8585 28.6393 14.8571 29.1427V31.9998C14.8571 32.1514 14.9173 32.2967 15.0244 32.4039C15.1316 32.511 15.2769 32.5713 15.4285 32.5713H16.5713V31.4284H15.9999V29.1427C15.9999 28.8396 16.1203 28.5489 16.3346 28.3346C16.549 28.1203 16.8396 27.9999 17.1427 27.9999C17.4459 27.9999 17.7365 28.1203 17.9509 28.3346C18.1652 28.5489 18.2856 28.8396 18.2856 29.1427V31.4284H17.7142V32.5713H18.857C19.0086 32.5713 19.1539 32.511 19.2611 32.4039C19.3682 32.2967 19.4285 32.1514 19.4285 31.9998V29.1427C19.4267 28.6353 19.2561 28.143 18.9437 27.7432C18.6312 27.3435 18.1947 27.059 17.7027 26.9347C17.6583 25.3427 17.3929 23.7646 16.9142 22.2456L19.1176 22.797C20.1856 23.0639 21.1338 23.6801 21.8113 24.5478C22.4889 25.4154 22.857 26.4847 22.857 27.5856V34.2855Z" fill="#4E88FF"/>
    <path d="M32.0001 5.33255C31.9996 4.33801 31.6509 3.37505 31.0144 2.61085L30.4738 1.96229C29.9623 1.34815 29.322 0.854019 28.5983 0.514915C27.8746 0.175811 27.0851 3.05176e-05 26.2859 3.05176e-05C25.4866 3.05176e-05 24.6972 0.175811 23.9734 0.514915C23.2497 0.854019 22.6094 1.34815 22.0979 1.96229L21.5579 2.61028C20.8782 3.42527 20.5279 4.46503 20.5759 5.52517C20.6239 6.58532 21.0667 7.58916 21.8173 8.33939L23.1922 9.71424L21.3105 11.5959C21.2033 11.7031 21.1432 11.8484 21.1432 11.9999C21.1432 12.1515 21.2033 12.2968 21.3105 12.4039L23.5962 14.6896C23.7033 14.7968 23.8486 14.8569 24.0002 14.8569C24.1517 14.8569 24.297 14.7968 24.4042 14.6896L26.2859 12.8079L28.1676 14.6896C28.2747 14.7968 28.42 14.8569 28.5716 14.8569C28.7231 14.8569 28.8684 14.7968 28.9756 14.6896L31.2613 12.4039C31.3684 12.2968 31.4286 12.1515 31.4286 11.9999C31.4286 11.8484 31.3684 11.7031 31.2613 11.5959L29.3796 9.71424L30.7544 8.33939C31.1505 7.94546 31.4646 7.47687 31.6784 6.96075C31.8923 6.44462 32.0016 5.89121 32.0001 5.33255ZM26.2859 1.14286C27.3263 1.14337 28.3311 1.5219 29.1133 2.208C29.0479 2.88072 28.845 3.53285 28.5173 4.12399C27.8532 3.69502 27.0793 3.46684 26.2887 3.46684C25.4981 3.46684 24.7243 3.69502 24.0602 4.12399C23.7293 3.53278 23.5237 2.87981 23.4562 2.20571C24.2394 1.52024 25.245 1.14255 26.2859 1.14286ZM24.8773 5.21198C24.8242 5.15884 24.7762 5.10227 24.7259 5.04684C25.1932 4.75379 25.7337 4.59836 26.2853 4.59836C26.8369 4.59836 27.3774 4.75379 27.8447 5.04684C27.7944 5.10398 27.747 5.16112 27.6944 5.21198L26.2859 6.62054L24.8773 5.21198ZM24.0002 13.4776L22.5225 11.9999L24.0002 10.5222L25.4779 11.9999L24.0002 13.4776ZM30.0493 11.9999L28.5716 13.4776L22.6253 7.53139C22.0766 6.98279 21.7528 6.24879 21.7177 5.47364C21.6826 4.69849 21.9387 3.93823 22.4356 3.34228L22.4893 3.27713C22.7644 4.31496 23.3095 5.26137 24.0693 6.01997L30.0493 11.9999ZM28.5716 8.90624L27.0939 7.42854L28.5024 6.01997C29.2616 5.25978 29.8055 4.3117 30.0784 3.27256L30.1356 3.34285C30.6322 3.93884 30.8881 4.69901 30.8529 5.47403C30.8177 6.24905 30.4939 6.9829 29.9453 7.53139L28.5716 8.90624Z" fill="#4E88FF"/>
</svg>
