<svg width="34" height="30" viewBox="0 0 34 30" fill="none" xmlns="http://www.w3.org/2000/svg">
    <path d="M14.7893 22.1159C14.4074 22.1159 14.0537 21.9007 13.8801 21.5539L11.1194 16.0378L9.58266 18.4027C9.395 18.6914 9.07407 18.8656 8.72976 18.8656H1.01718C0.4554 18.8655 0 18.4101 0 17.8484C0 17.2866 0.4554 16.8312 1.01718 16.8312H8.17775L10.3813 13.4401C10.5801 13.1344 10.9279 12.9592 11.2912 12.9787C11.6554 12.9992 11.9806 13.213 12.1438 13.5391L14.4933 18.2336L16.8791 9.18652C16.9893 8.7689 17.3512 8.4663 17.7817 8.43197C18.2117 8.39751 18.6176 8.63895 18.7926 9.03379L20.5346 12.9653L22.0007 10.6927C22.1868 10.4044 22.5055 10.2293 22.8486 10.2269C23.1966 10.2235 23.5128 10.3955 23.7027 10.6812L25.2276 12.977H32.9818C33.5436 12.977 33.999 13.4324 33.999 13.9942C33.999 14.556 33.5436 15.0114 32.9818 15.0114H24.6821C24.3414 15.0114 24.0233 14.8408 23.8348 14.557L22.8678 13.1012L21.2226 15.6515C21.02 15.9656 20.661 16.1434 20.2886 16.1142C19.916 16.0851 19.5893 15.8539 19.4378 15.5122L18.1069 12.5083L15.7733 21.358C15.6654 21.7672 15.3153 22.0669 14.8945 22.1104C14.8592 22.114 14.8242 22.1159 14.7893 22.1159Z" fill="#2D527C"/>
    <path d="M16.46 29.4971C16.3122 29.4971 16.1643 29.465 16.0273 29.4005C11.1753 27.1198 6.30471 22.909 3.31619 18.4113C3.10868 18.0991 3.08975 17.698 3.26699 17.3676C3.44409 17.0373 3.78859 16.8312 4.16338 16.8312H8.17778L10.3813 13.44C10.58 13.1343 10.9276 12.9582 11.2913 12.9787C11.6554 12.9991 11.9806 13.2129 12.1438 13.539L14.4934 18.2336L16.8791 9.18644C16.9893 8.76883 17.3512 8.46622 17.7818 8.43189C18.2117 8.39743 18.6176 8.63887 18.7926 9.03371L20.5346 12.9652L22.0007 10.6926C22.1868 10.4044 22.5056 10.2292 22.8487 10.2269C22.8509 10.2269 22.8532 10.2269 22.8555 10.2269C23.196 10.2269 23.5142 10.3973 23.7028 10.6812L25.5295 13.4314C25.8404 13.8994 25.713 14.5307 25.2451 14.8415C24.777 15.1523 24.1458 15.0249 23.835 14.5571L22.8679 13.1012L21.2228 15.6516C21.02 15.9657 20.6606 16.1435 20.2888 16.1143C19.9161 16.0852 19.5895 15.854 19.438 15.5122L18.1071 12.5083L15.7734 21.358C15.6655 21.7672 15.3155 22.0669 14.8946 22.1104C14.473 22.1536 14.0697 21.9323 13.8803 21.5539L11.1196 16.0378L9.58282 18.4027C9.39517 18.6913 9.07423 18.8656 8.72993 18.8656H6.15597C8.84919 22.296 12.7002 25.4842 16.46 27.3504C19.9566 25.6145 23.5919 22.7038 26.2646 19.4867C26.6237 19.0546 27.2648 18.9953 27.697 19.3543C28.1291 19.7133 28.1884 20.3546 27.8294 20.7867C24.865 24.355 20.7766 27.575 16.8927 29.4006C16.7557 29.465 16.6077 29.4971 16.46 29.4971Z" fill="#2D527C"/>
    <path d="M11.234 13.9952L14.7896 21.0995L17.8624 9.4468L20.3677 15.101L22.8552 11.245L24.682 13.9952H30.7709C31.0207 13.3299 31.2171 12.6663 31.3515 12.0095C31.4899 11.331 31.565 10.6562 31.565 9.99589C31.565 5.03849 27.601 1.01758 22.7105 1.01758C20.2715 1.01758 18.0631 2.01909 16.4597 3.63683C14.8564 2.01902 12.6481 1.01758 10.209 1.01758C5.31856 1.01758 1.35449 5.03849 1.35449 9.99589C1.35449 10.6562 1.42953 11.331 1.56798 12.0095C1.96282 13.9404 2.88743 15.9294 4.16306 17.8493H8.72948L11.234 13.9952Z" fill="#CEE8FA"/>
    <path d="M14.7893 22.1163C14.4074 22.1163 14.0537 21.9011 13.8801 21.5544L11.1194 16.0383L9.58264 18.4032C9.39498 18.6919 9.07405 18.8661 8.72974 18.8661H4.16333C3.82267 18.8661 3.5046 18.6956 3.31614 18.4118C1.90054 16.2815 0.977318 14.1958 0.571721 12.213C0.416402 11.4511 0.337646 10.7052 0.337646 9.99549C0.337646 4.48394 4.76601 0 10.2092 0C12.513 0 14.6988 0.795589 16.46 2.25847C18.2212 0.795589 20.407 0 22.7108 0C28.154 0 32.5823 4.48394 32.5823 9.99549C32.5823 10.7055 32.5035 11.4513 32.3483 12.2125C32.2066 12.9053 31.9964 13.6252 31.7234 14.3523C31.5745 14.7491 31.195 15.0119 30.7712 15.0119H24.6822C24.3415 15.0119 24.0234 14.8413 23.8349 14.5576L22.8679 13.1018L21.2226 15.6521C21.02 15.9662 20.6611 16.144 20.2887 16.1148C19.916 16.0857 19.5894 15.8545 19.4379 15.5127L18.107 12.5088L15.7733 21.3585C15.6654 21.7677 15.3154 22.0674 14.8945 22.1109C14.8592 22.1144 14.8241 22.1163 14.7893 22.1163ZM11.234 12.9776C11.253 12.9776 11.2721 12.9781 11.2912 12.9792C11.6554 12.9997 11.9806 13.2135 12.1438 13.5396L14.4933 18.2341L16.8791 9.18702C16.9892 8.76941 17.3511 8.4668 17.7817 8.43247C18.2117 8.39801 18.6176 8.63945 18.7926 9.03429L20.5346 12.9658L22.0007 10.6932C22.1868 10.4049 22.5055 10.2298 22.8486 10.2274C23.1966 10.224 23.5129 10.396 23.7027 10.6817L25.2276 12.9775H30.0475C30.1743 12.578 30.2773 12.1856 30.3551 11.8051C30.483 11.178 30.5479 10.569 30.5479 9.9953C30.5479 5.60545 27.0322 2.03409 22.7108 2.03409C20.6273 2.03409 18.6639 2.85737 17.1825 4.3522C16.9915 4.54497 16.7315 4.65341 16.4601 4.65341C16.1887 4.65341 15.9286 4.54497 15.7376 4.3522C14.2562 2.85737 12.2928 2.03409 10.2094 2.03409C5.88784 2.03409 2.37207 5.60545 2.37207 9.9953C2.37207 10.5688 2.43695 11.1778 2.56504 11.8057C2.88969 13.3934 3.6129 15.0823 4.71641 16.8316H8.17779L10.3813 13.4405C10.5695 13.1508 10.8911 12.9776 11.234 12.9776Z" fill="#2D527C"/>
</svg>
