<svg width="37" height="32" viewBox="0 0 37 32" fill="none" xmlns="http://www.w3.org/2000/svg">
    <path d="M9.2003 5.49121H35.6867C36.0827 5.49118 36.4542 5.6834 36.683 6.00675C36.9117 6.33011 36.9693 6.74437 36.8374 7.11786L30.3772 25.4222C30.2048 25.9104 29.743 26.2367 29.2252 26.2361H2.73888C2.34279 26.2361 1.97133 26.0439 1.74258 25.7206C1.51383 25.3972 1.45625 24.9829 1.58815 24.6095L8.04835 6.30514C8.22077 5.81692 8.68253 5.49066 9.2003 5.49121Z" fill="#F3D55B"/>
    <path d="M25.3136 3.66072H5.17887C4.8419 3.66072 4.56873 3.38755 4.56873 3.05057C4.56873 2.7136 4.8419 2.44043 5.17887 2.44043H25.3136C25.6506 2.44043 25.9238 2.7136 25.9238 3.05057C25.9238 3.38755 25.6506 3.66072 25.3136 3.66072Z" fill="#67B9CC"/>
    <path d="M32.6356 3.66087H27.7544C27.4175 3.66087 27.1443 3.3877 27.1443 3.05073C27.1443 2.71375 27.4175 2.44058 27.7544 2.44058H32.6356C32.9726 2.44058 33.2457 2.71375 33.2457 3.05073C33.2457 3.3877 32.9726 3.66087 32.6356 3.66087Z" fill="#67B9CC"/>
    <path d="M30.1951 1.22029H14.3313C13.9944 1.22029 13.7212 0.947117 13.7212 0.610144C13.7212 0.273171 13.9944 0 14.3313 0H30.1951C30.5321 0 30.8052 0.273171 30.8052 0.610144C30.8052 0.947117 30.5321 1.22029 30.1951 1.22029Z" fill="#67B9CC"/>
    <path d="M11.8907 1.22029H1.51829C1.18131 1.22029 0.908142 0.947117 0.908142 0.610144C0.908142 0.273171 1.18131 0 1.51829 0H11.8907C12.2277 0 12.5009 0.273171 12.5009 0.610144C12.5009 0.947117 12.2277 1.22029 11.8907 1.22029Z" fill="#67B9CC"/>
    <path d="M25.3136 29.2867H5.17887C4.8419 29.2867 4.56873 29.0135 4.56873 28.6766C4.56873 28.3396 4.8419 28.0664 5.17887 28.0664H25.3136C25.6506 28.0664 25.9238 28.3396 25.9238 28.6766C25.9238 29.0135 25.6506 29.2867 25.3136 29.2867Z" fill="#67B9CC"/>
    <path d="M32.6356 29.2869H27.7544C27.4175 29.2869 27.1443 29.0138 27.1443 28.6768C27.1443 28.3398 27.4175 28.0666 27.7544 28.0666H32.6356C32.9726 28.0666 33.2457 28.3398 33.2457 28.6768C33.2457 29.0138 32.9726 29.2869 32.6356 29.2869Z" fill="#67B9CC"/>
    <path d="M30.1951 31.7271H14.3313C13.9944 31.7271 13.7212 31.454 13.7212 31.117C13.7212 30.78 13.9944 30.5068 14.3313 30.5068H30.1951C30.5321 30.5068 30.8052 30.78 30.8052 31.117C30.8052 31.454 30.5321 31.7271 30.1951 31.7271Z" fill="#67B9CC"/>
    <path d="M11.8907 31.7271H1.51829C1.18131 31.7271 0.908142 31.454 0.908142 31.117C0.908142 30.78 1.18131 30.5068 1.51829 30.5068H11.8907C12.2277 30.5068 12.5009 30.78 12.5009 31.117C12.5009 31.454 12.2277 31.7271 11.8907 31.7271Z" fill="#67B9CC"/>
    <path d="M28.3646 8.54232H14.9414C14.6045 8.54232 14.3313 8.26915 14.3313 7.93218C14.3313 7.59521 14.6045 7.32204 14.9414 7.32204H28.3646C28.7016 7.32204 28.9748 7.59521 28.9748 7.93218C28.9748 8.26915 28.7016 8.54232 28.3646 8.54232Z" fill="#ECF0F1"/>
    <path d="M15.9603 15.998L1.64023 25.5467C1.49833 25.2528 1.48074 24.9142 1.59141 24.6071L8.04674 6.3028C8.11864 6.10108 8.24288 5.92209 8.40672 5.78418L15.9603 15.998Z" fill="#F0C419"/>
    <path d="M29.994 25.9616C29.7778 26.1404 29.5057 26.2376 29.2252 26.2362H2.73882C2.27039 26.2374 1.843 25.9691 1.64056 25.5467L15.9606 15.998L17.2969 17.8101C17.6853 18.337 18.4203 18.4635 18.9626 18.0969L22.4526 15.7295L29.994 25.9616Z" fill="#F29C1F"/>
    <path d="M36.8337 7.12098L30.3784 25.4253C30.3033 25.6369 30.1701 25.823 29.994 25.9622L22.4526 15.7301L36.7178 6.06543C36.9186 6.38008 36.9614 6.77026 36.8337 7.12098Z" fill="#F0C419"/>
</svg>
