<svg width="34" height="41" viewBox="0 0 34 41" fill="none" xmlns="http://www.w3.org/2000/svg">
    <path d="M28.4947 27.2937H25.8434H21.079C21.0835 27.2174 21.0909 27.142 21.0909 27.0646V19.6024H12.9111V27.0646C12.9111 27.142 12.9185 27.2174 12.9229 27.2937H8.15844H5.50709C2.64283 27.2937 0.320923 29.6156 0.320923 32.4798V40.4064H33.6809V32.4798C33.6809 29.6156 31.359 27.2937 28.4947 27.2937Z" fill="#FF9F70"/>
    <path d="M28.4942 27.2938H26.6749C29.5391 27.2938 31.861 29.6157 31.861 32.4799V40.4065H33.6804V32.4799C33.6804 29.6157 31.3585 27.2938 28.4942 27.2938Z" fill="#E18152"/>
    <path d="M5.50685 27.2938H7.3262C4.46194 27.2938 2.14003 29.6157 2.14003 32.4799V40.4065H0.320679V32.4799C0.320679 29.6157 2.64259 27.2938 5.50685 27.2938Z" fill="#FFBD8E"/>
    <path d="M33.6805 40.7264H0.320544C0.144076 40.7264 0.000854492 40.5833 0.000854492 40.4067V32.4802C0.000854492 29.4442 2.47078 26.9743 5.50671 26.9743H12.5909V19.6027C12.5909 19.4263 12.7341 19.283 12.9106 19.283H21.0903C21.2668 19.283 21.41 19.4263 21.41 19.6027V26.9743H28.4943C31.5303 26.9743 34.0002 29.4442 34.0002 32.4802V40.4067C34.0002 40.5833 33.8571 40.7264 33.6805 40.7264ZM0.640234 40.087H33.3608V32.4802C33.3608 29.7967 31.1776 27.6137 28.4943 27.6137H21.0785C20.9904 27.6137 20.9063 27.5774 20.8459 27.5135C20.7856 27.4494 20.7542 27.3634 20.7594 27.2754L20.7639 27.2077C20.7673 27.1605 20.7708 27.1132 20.7708 27.0651V19.9226H13.2304V27.0651C13.2304 27.1126 13.2338 27.1591 13.2371 27.2056L13.2416 27.2758C13.2467 27.3637 13.2152 27.4497 13.155 27.5136C13.0945 27.5776 13.0105 27.6138 12.9226 27.6138H5.50671C2.8234 27.6138 0.640234 29.797 0.640234 32.4803V40.087Z" fill="#690589"/>
    <path d="M1.77593 34.9827C1.5993 34.9827 1.45624 34.8395 1.45624 34.663V32.4799C1.45624 32.3033 1.5993 32.1602 1.77593 32.1602C1.9524 32.1602 2.09562 32.3033 2.09562 32.4799V34.663C2.09562 34.8395 1.95256 34.9827 1.77593 34.9827Z" fill="#690589"/>
    <path d="M17.0004 24.8821C12.1168 24.8821 8.1579 20.8717 8.1579 15.9249V9.72368C8.1579 4.7768 12.1168 0.766449 17.0004 0.766449C21.8839 0.766449 25.8428 4.7768 25.8428 9.72368V15.9249C25.8428 20.8719 21.8839 24.8821 17.0004 24.8821Z" fill="#FF9F70"/>
    <path d="M17.0006 0.766449C16.6606 0.766449 16.3257 0.787868 15.9958 0.825751C20.4059 1.33134 23.8333 5.1211 23.8333 9.72384V15.925C23.8333 20.5276 20.4059 24.3175 15.9958 24.8231C16.3257 24.861 16.6606 24.8822 17.0006 24.8822C21.8842 24.8822 25.843 20.8719 25.843 15.925V9.72368C25.843 4.7768 21.8842 0.766449 17.0006 0.766449Z" fill="#E18152"/>
    <path d="M17.0004 0.766449C17.3403 0.766449 17.6752 0.787868 18.0051 0.825751C13.595 1.33134 10.1675 5.1211 10.1675 9.72384V15.925C10.1675 20.5276 13.5949 24.3175 18.0051 24.8231C17.6752 24.861 17.3403 24.8822 17.0004 24.8822C12.1168 24.8822 8.1579 20.8719 8.1579 15.925V9.72368C8.1579 4.7768 12.1168 0.766449 17.0004 0.766449Z" fill="#FFBD8E"/>
    <path d="M17.0005 25.201C11.9485 25.201 7.83838 21.0394 7.83838 15.9241V9.7229C7.83838 4.60755 11.9485 0.445984 17.0005 0.445984C22.0524 0.445984 26.1625 4.60755 26.1625 9.7229V15.9241C26.1625 21.0394 22.0524 25.201 17.0005 25.201ZM17.0005 1.08536C12.3011 1.08536 8.47776 4.96016 8.47776 9.7229V15.9241C8.47776 20.6868 12.3011 24.5616 17.0005 24.5616C21.7 24.5616 25.5231 20.6868 25.5231 15.9241V9.7229C25.5231 4.96016 21.7 1.08536 17.0005 1.08536Z" fill="#690589"/>
    <path d="M17.0005 15.6441C13.888 15.6441 11.9428 12.2747 13.4989 9.57926L17.0005 3.51458L20.5019 9.57942C22.0581 12.2749 20.113 15.6441 17.0005 15.6441Z" fill="#F4EFED"/>
    <path d="M17.0005 15.9652C15.4233 15.9652 14.0107 15.1496 13.2222 13.7838C12.4335 12.4179 12.4335 10.7868 13.222 9.42096L16.7236 3.35613C16.7807 3.25718 16.8863 3.19628 17.0005 3.19628C17.1146 3.19628 17.2202 3.25718 17.2773 3.35613L20.7787 9.42096C21.5674 10.7868 21.5674 12.4179 20.7789 13.7838C19.9902 15.1498 18.5776 15.9652 17.0005 15.9652ZM17.0005 4.15535L13.7759 9.74065C13.103 10.9064 13.103 12.2983 13.7759 13.4641C14.4489 14.6298 15.6544 15.3258 17.0005 15.3258C18.3465 15.3258 19.5521 14.6298 20.225 13.4641C20.8981 12.2983 20.8981 10.9064 20.2252 9.74065L17.0005 4.15535Z" fill="#690589"/>
    <path d="M15.9685 10.809C15.3386 10.809 14.8259 10.2966 14.8259 9.66664C14.8259 9.03669 15.3386 8.52422 15.9685 8.52422C16.5984 8.52422 17.1109 9.03669 17.1109 9.66664C17.1109 10.2966 16.5984 10.809 15.9685 10.809ZM15.9685 9.1636C15.6912 9.1636 15.4653 9.3893 15.4653 9.66664C15.4653 9.94397 15.691 10.1697 15.9685 10.1697C16.2458 10.1697 16.4715 9.94397 16.4715 9.66664C16.4715 9.3893 16.2458 9.1636 15.9685 9.1636Z" fill="#690589"/>
    <path d="M18.0327 14.0515C17.4028 14.0515 16.8903 13.5388 16.8903 12.9091C16.8903 12.2793 17.4029 11.7666 18.0327 11.7666C18.6627 11.7666 19.1751 12.2791 19.1751 12.9091C19.1751 13.539 18.6627 14.0515 18.0327 14.0515ZM18.0327 12.4059C17.7554 12.4059 17.5297 12.6316 17.5297 12.9089C17.5297 13.1862 17.7554 13.4119 18.0327 13.4119C18.3101 13.4119 18.5358 13.1862 18.5358 12.9089C18.5358 12.6316 18.3101 12.4059 18.0327 12.4059Z" fill="#690589"/>
    <path d="M15.6999 14.052C15.6492 14.052 15.5979 14.0398 15.5499 14.0144C15.3941 13.9314 15.335 13.7379 15.4179 13.582L18.0189 8.6938C18.1019 8.53795 18.2954 8.4788 18.4513 8.56176C18.6071 8.64472 18.6663 8.8383 18.5833 8.99414L15.9823 13.8824C15.9248 13.9904 15.8143 14.052 15.6999 14.052Z" fill="#690589"/>
    <path d="M6.21514 40.7266C6.03867 40.7266 5.89545 40.5835 5.89545 40.4069V34.6635C5.89545 34.4871 6.03867 34.3438 6.21514 34.3438C6.39177 34.3438 6.53483 34.4871 6.53483 34.6635V40.4069C6.53483 40.5835 6.39177 40.7266 6.21514 40.7266Z" fill="#690589"/>
    <path d="M27.7865 40.7266C27.61 40.7266 27.4668 40.5835 27.4668 40.4069V34.6635C27.4668 34.4871 27.61 34.3438 27.7865 34.3438C27.9631 34.3438 28.1062 34.4871 28.1062 34.6635V40.4069C28.1062 40.5835 27.963 40.7266 27.7865 40.7266Z" fill="#690589"/>
</svg>
