<svg width="24" height="44" viewBox="0 0 24 44" fill="none" xmlns="http://www.w3.org/2000/svg">
    <path d="M1.48002 40.1604H4.14303C4.40775 38.2677 4.86834 36.8663 5.25752 35.6825C5.64894 34.4921 5.95804 33.5518 5.95804 32.521C5.95804 31.4007 5.66713 30.3551 5.33017 29.1442C4.88024 27.5271 4.32034 25.5145 4.21952 22.4903C4.21754 22.4316 4.26359 22.3823 4.32231 22.3805C4.37968 22.3751 4.4302 22.4244 4.43217 22.4832C4.53215 25.482 5.08841 27.481 5.53522 29.0872C5.87634 30.313 6.17088 31.3716 6.17088 32.521C6.17088 33.5859 5.84131 34.5883 5.45966 35.7491C4.9456 37.3126 4.30588 39.2587 4.16672 42.2231C4.1531 42.5116 4.256 42.7861 4.45628 42.9961C4.65823 43.2077 4.93022 43.3242 5.22218 43.3242H19.7742C20.0681 43.3242 20.341 43.2062 20.5427 42.9917C20.7451 42.7765 20.8467 42.4955 20.8286 42.2005C20.6479 39.2533 19.8325 37.3148 19.1774 35.7572C18.6884 34.5945 18.266 33.5903 18.266 32.5211C18.266 31.3669 18.4817 30.474 18.7316 29.4401C19.0589 28.0862 19.4662 26.401 19.5658 23.4138C19.5678 23.355 19.6184 23.3088 19.6756 23.311C19.7344 23.3129 19.7804 23.3621 19.7784 23.4208C19.6782 26.4299 19.2681 28.1267 18.9385 29.4902C18.6817 30.5528 18.4788 31.3922 18.4788 32.5211C18.4788 33.5474 18.8737 34.4862 19.3735 35.6746C19.9262 36.9887 20.5903 38.5736 20.901 40.7989H22.5174C22.8424 40.7989 23.1444 40.6527 23.3459 40.3976C23.5473 40.1426 23.6198 39.8149 23.5445 39.4987L22.3252 34.3763C22.2068 33.4312 22.1812 32.4819 22.2471 31.5432L22.8678 25.11C23.1837 22.5946 22.1981 19.7054 19.2848 18.9141C18.984 18.8324 18.6905 18.7179 18.443 18.6167L17.4499 18.2099C16.7102 17.9069 16.1028 17.348 15.7397 16.6358L15.3601 15.8916C15.0942 15.3702 15.0167 14.7682 15.1417 14.1967L15.5123 12.5018C15.5247 12.4445 15.581 12.4083 15.639 12.4206C15.6963 12.4331 15.7327 12.4898 15.7201 12.5473L15.4287 13.8805C16.8738 13.2974 17.9635 12.0775 18.2929 10.6531L19.1928 6.73051C19.4811 5.52227 19.2798 4.2763 18.6261 3.22116C17.9725 2.16602 16.9466 1.43089 15.7372 1.1512C13.2707 0.580178 10.7857 2.12007 10.198 4.5828L9.28283 8.56943C8.94904 10.0132 9.35808 11.6367 10.3239 12.763L10.7527 11.3575C10.7698 11.3014 10.8292 11.2692 10.8855 11.2868C10.9417 11.304 10.9733 11.3634 10.9562 11.4196L10.211 13.8622C9.95976 14.686 9.41151 15.3785 8.66734 15.8122L8.27021 16.0437C7.67164 16.3924 6.99108 16.5688 6.2967 16.563L5.0471 16.5464C3.64626 16.5155 2.67365 17.2589 2.10721 17.8872C1.05549 19.0537 0.527607 20.7775 0.729557 22.3856L1.26888 30.0756C1.33374 30.9995 1.30858 31.9337 1.19415 32.8526L0.432412 38.9742C0.394995 39.2744 0.488437 39.5767 0.688718 39.8035C0.889047 40.0302 1.17746 40.1604 1.48002 40.1604ZM12.6108 43.2043C12.6108 43.2631 12.5632 43.3107 12.5044 43.3107C12.4455 43.3107 12.3979 43.2631 12.3979 43.2043V41.0788C12.3979 41.02 12.4455 40.9724 12.5044 40.9724C12.5632 40.9724 12.6108 41.02 12.6108 41.0788V43.2043Z" fill="#FFE0C9"/>
    <path d="M9.1828 9.58346C9.17857 9.58213 9.17438 9.58293 9.17012 9.58217C9.16991 9.70512 9.17266 9.82815 9.18185 9.95105L9.25347 9.71628C9.27061 9.66005 9.23902 9.60061 9.1828 9.58346Z" fill="black"/>
    <path d="M17.4908 5.0271L16.5909 8.9497C16.3886 9.82463 15.8976 10.6163 15.2395 11.2224C14.9285 11.5088 14.5588 11.6691 14.2346 11.9125C13.8983 12.165 13.6851 12.7031 13.602 13.0986C13.3524 14.2868 13.6727 15.6234 14.3818 16.6186C14.9839 17.4637 16.0184 18.0588 17.0447 17.906C16.8877 17.9294 16.4014 17.2929 16.3024 17.1749C16.0593 16.8853 15.8457 16.5709 15.6658 16.2383C15.3292 15.6158 14.9869 14.9078 15.1425 14.1961L15.5131 12.5013C15.5255 12.444 15.5818 12.4078 15.6398 12.4201C15.6971 12.4325 15.7335 12.4893 15.7209 12.5468L15.4295 13.88C16.8746 13.2969 17.9644 12.077 18.2937 10.6526L19.1936 6.72998C19.4819 5.52174 19.2806 4.27577 18.627 3.22063C18.2146 2.55492 17.6535 2.01745 16.9921 1.64052C17.5878 2.6692 17.7681 3.86473 17.4908 5.0271Z" fill="#FFBA9C"/>
    <path d="M23.5455 39.4972L22.3262 34.3748C22.2078 33.4297 22.1822 32.4803 22.2481 31.5417L22.8688 25.1085C23.1388 22.9584 22.4567 20.5363 20.4338 19.3837C21.1254 20.5725 21.337 22.0435 21.1659 23.4056L20.5452 29.8388C20.4793 30.7775 20.5049 31.7268 20.6233 32.6719L21.8427 37.7943C21.9179 38.1105 21.8455 38.4382 21.644 38.6932C21.4425 38.9483 21.1406 39.0945 20.8156 39.0945H20.5731C20.7029 39.619 20.8163 40.183 20.902 40.7974H22.5184C22.8434 40.7974 23.1454 40.6511 23.3469 40.3961C23.5483 40.141 23.6208 39.8133 23.5455 39.4972Z" fill="#FFBA9C"/>
    <path d="M20.5346 39.4812C20.4708 38.5429 19.8105 37.4973 19.4515 36.6326C19.1167 35.8263 18.7802 35.0145 18.5961 34.161C18.2036 32.3411 18.5258 30.4483 18.9278 28.6304C19.1955 27.4199 19.499 26.2135 19.6523 24.9813C19.7133 24.4913 19.9991 23.7372 19.3674 23.5253C19.1298 23.4455 18.8692 23.4828 18.6413 23.5874C17.9439 23.9074 17.6654 24.5263 17.5523 25.2227C17.4149 26.069 17.2312 26.9036 17.0298 27.7368C16.78 28.7707 16.5642 29.6636 16.5642 30.8178C16.5642 31.887 16.9866 32.8911 17.4756 34.0539C18.0232 35.3559 18.6828 36.924 18.99 39.1248C19.0489 39.5467 19.0949 39.9918 19.1247 40.4627C19.1418 40.734 19.0684 41.0104 18.8983 41.2224C18.6928 41.4785 18.3952 41.6209 18.0724 41.6209H12.6119V43.2039C12.6119 43.2627 12.5643 43.3103 12.5055 43.3103C12.4466 43.3103 12.399 43.2627 12.399 43.2039V41.6209H8.87878C7.38682 41.6209 5.95597 42.2136 4.901 43.2686C5.00424 43.3016 5.11139 43.3238 5.22327 43.3238H19.7388C20.0109 43.3238 20.2812 43.235 20.4823 43.0518C20.7255 42.8302 20.8495 42.5235 20.8297 42.2001C20.8297 41.2901 20.596 40.3839 20.5346 39.4812Z" fill="#FFBA9C"/>
    <path d="M1.32245 40.1472C1.37467 40.1552 1.42743 40.1607 1.48095 40.1607H4.14396C4.18153 39.5574 4.48695 38.9998 4.56027 38.4774C3.55629 38.4774 2.59344 38.8763 1.88352 39.5862L1.32245 40.1472Z" fill="#FFBA9C"/>
    <path d="M16.364 13.3541L16.3569 13.3863C16.408 13.3518 16.4583 13.3167 16.5079 13.2805C16.5021 13.278 16.4971 13.2743 16.4907 13.2729C16.4327 13.2606 16.3765 13.2968 16.364 13.3541Z" fill="#FFE0C9"/>
    <path d="M10.4303 12.4134C10.025 11.4756 9.9062 10.4064 10.1341 9.42087L11.0492 5.43424C11.637 2.97151 14.122 1.43162 16.5884 2.00263C17.2476 2.15508 17.8492 2.44695 18.3688 2.8481C17.7177 1.99293 16.7981 1.3966 15.737 1.1512C13.2705 0.580178 10.7856 2.12007 10.1978 4.5828L9.28266 8.56943C8.94888 10.0132 9.35791 11.6367 10.3237 12.763L10.4303 12.4134Z" fill="white"/>
    <path d="M4.49229 39.2322L4.36453 40.3223C4.3072 40.8928 4.26631 41.5002 4.25415 42.1652C4.25204 42.2802 4.26371 42.396 4.28943 42.5081C4.39776 42.3998 4.51228 42.2239 4.62844 42.0301C5.00942 41.3943 5.24614 40.6843 5.34867 39.9502C5.59884 38.1592 6.02884 37.0984 6.41912 35.9111C6.80076 34.7503 7.13034 33.7478 7.13034 32.683C7.13034 31.5336 6.8358 30.4749 6.49479 29.2491C6.09256 27.8035 5.60183 26.0398 5.43483 23.5154C5.39796 22.9579 5.01764 22.4799 4.47816 22.3345C4.4019 22.314 4.35336 22.3059 4.3538 22.3186C4.45462 25.3428 5.06084 27.6891 5.51077 29.3062C5.84762 30.517 6.2789 31.3015 6.2789 32.4218C6.2789 33.4525 5.95353 34.1348 5.56211 35.3253C5.17294 36.5091 4.75703 37.3396 4.49229 39.2322Z" fill="white"/>
    <path d="M11.4126 11.9875C11.3815 11.7707 11.3049 11.5171 11.0474 11.5034C10.8679 11.4939 10.7072 11.6219 10.647 11.7912C10.4195 12.4308 10.2524 13.0841 10.0749 13.7415C9.88804 14.4337 9.46741 15.0494 8.89047 15.4751L8.34269 16.0173C7.78362 16.4299 7.09236 16.6478 6.39838 16.6397L5.58665 16.6266C4.40647 16.5991 2.68854 17.362 1.91547 18.2194C0.999918 19.2348 0.568066 20.7548 0.760241 22.2854L1.29966 29.9754C1.36452 30.8993 1.33937 31.8336 1.22493 32.7524L0.463098 38.874C0.435527 39.0957 0.479726 39.3184 0.585171 39.5112C0.657132 39.4392 0.732205 39.3422 0.808839 39.2327C1.27333 38.569 1.55483 37.7946 1.65488 36.9907L2.07642 33.6035C2.19103 32.6826 2.21605 31.7527 2.15111 30.8268L1.61169 23.1368C1.41952 21.6063 1.85137 20.0862 2.76692 19.0708C3.53999 18.2134 5.25793 17.4505 6.4381 17.4781L7.24983 17.4912C7.9438 17.4993 8.30763 17.3853 8.86669 16.9726C8.86669 16.9726 9.74192 16.3266 9.74192 16.3266C11.0082 15.3919 11.6311 13.5105 11.4126 11.9875Z" fill="white"/>
    <path d="M12.5049 43.5212C12.3285 43.5212 12.1856 43.3783 12.1856 43.2019V41.0764C12.1856 40.9 12.3285 40.7571 12.5049 40.7571C12.6812 40.7571 12.8242 40.9 12.8242 41.0764V43.2019C12.8241 43.3783 12.6812 43.5212 12.5049 43.5212ZM12.5049 39.2685C12.3285 39.2685 12.1856 39.1256 12.1856 38.9492V36.8217C12.1856 36.6453 12.3285 36.5024 12.5049 36.5024C12.6812 36.5024 12.8242 36.6453 12.8242 36.8217V38.9492C12.8241 39.1256 12.6812 39.2685 12.5049 39.2685ZM12.471 35.0134C12.3014 35.0134 12.1601 34.8799 12.1522 34.7087C12.1217 34.0413 12.0704 33.3528 11.9955 32.6039C11.9779 32.4284 12.106 32.2719 12.2814 32.2543C12.4557 32.2375 12.6133 32.3647 12.6309 32.5403C12.707 33.3008 12.7591 34.0005 12.7902 34.6795C12.7982 34.8556 12.6619 35.005 12.4857 35.0131C12.4809 35.0133 12.4759 35.0134 12.471 35.0134ZM12.0623 30.7779C11.9047 30.7779 11.7677 30.6613 11.7462 30.5009C11.6735 29.9547 11.5969 29.4125 11.5205 28.8726L11.4533 28.3959C11.4287 28.2212 11.5503 28.0597 11.7249 28.0352C11.899 28.0106 12.061 28.1322 12.0856 28.3069L12.1528 28.7832C12.2293 29.3248 12.3062 29.8687 12.3792 30.4164C12.4025 30.5913 12.2796 30.7518 12.1049 30.7751C12.0906 30.777 12.0763 30.7779 12.0623 30.7779ZM11.4889 26.5613C11.3296 26.5613 11.1919 26.4423 11.1723 26.2802C11.0783 25.4979 11.0096 24.8001 10.9626 24.1471C10.9499 23.9712 11.0822 23.8184 11.2581 23.8057C11.4337 23.7944 11.5869 23.9253 11.5995 24.1012C11.6458 24.744 11.7134 25.4318 11.8063 26.2039C11.8274 26.379 11.7025 26.5379 11.5275 26.559C11.5145 26.5606 11.5017 26.5613 11.4889 26.5613ZM11.201 22.3169C11.2009 22.3169 11.2009 22.3169 11.2009 22.3169C11.0245 22.3168 10.8816 22.1738 10.8817 21.9976C10.882 21.3094 10.9103 20.6299 10.9657 19.9778C10.9695 19.9328 10.974 19.8863 10.979 19.8385C10.9975 19.6632 11.1558 19.5364 11.3299 19.5544C11.5052 19.5728 11.6324 19.7299 11.614 19.9053C11.6095 19.9485 11.6054 19.9907 11.602 20.0316C11.5473 20.6751 11.5206 21.3182 11.5203 21.9978C11.5202 22.174 11.3773 22.3169 11.201 22.3169ZM11.6792 18.0941C11.6557 18.0941 11.632 18.0915 11.6082 18.0861C11.4362 18.047 11.3285 17.8759 11.3675 17.704C11.5064 17.0926 11.6804 16.3926 11.8846 15.6236C11.9299 15.4531 12.105 15.3517 12.2751 15.3969C12.4455 15.4421 12.5471 15.617 12.5018 15.7875C12.2995 16.549 12.1274 17.2414 11.9903 17.8454C11.9566 17.9936 11.8249 18.0941 11.6792 18.0941ZM12.7635 13.9703C12.7342 13.9703 12.7045 13.9662 12.675 13.9577C12.5055 13.9088 12.4077 13.7319 12.4565 13.5625C12.7968 12.3811 13.0655 11.5172 13.0682 11.5087C13.1207 11.3403 13.2999 11.2462 13.4679 11.2987C13.6363 11.3511 13.7304 11.5301 13.6779 11.6985C13.6753 11.707 13.4085 12.5648 13.0702 13.7392C13.0298 13.8792 12.9022 13.9703 12.7635 13.9703Z" fill="#540000"/>
    <path d="M16.5844 22.1996C16.5683 22.1996 16.552 22.1984 16.5355 22.1958L14.4317 21.8728C14.2574 21.8461 14.1378 21.6831 14.1646 21.5088C14.1914 21.3345 14.354 21.2143 14.5286 21.2417L16.6324 21.5647C16.8067 21.5915 16.9263 21.7544 16.8995 21.9287C16.8753 22.0866 16.7392 22.1996 16.5844 22.1996ZM12.3766 21.5534C12.3605 21.5534 12.3442 21.5523 12.3277 21.5497L10.2238 21.2265C10.0495 21.1998 9.92987 21.0369 9.95668 20.8626C9.9835 20.6883 10.1459 20.5679 10.3207 20.5955L12.4246 20.9186C12.5989 20.9453 12.7185 21.1083 12.6917 21.2826C12.6675 21.4404 12.5314 21.5534 12.3766 21.5534ZM8.16879 20.9073C8.15267 20.9073 8.13636 20.9061 8.11994 20.9035L6.01599 20.5804C5.84169 20.5537 5.72206 20.3907 5.74887 20.2164C5.77558 20.0421 5.93897 19.9215 6.11285 19.9493L8.2168 20.2724C8.39109 20.2991 8.51073 20.4621 8.48392 20.6364C8.45971 20.7943 8.32376 20.9073 8.16879 20.9073Z" fill="#540000"/>
    <path d="M4.23689 40.5843H1.48043C1.05586 40.5843 0.651141 40.4018 0.369995 40.0836C0.0889556 39.7653 -0.0421048 39.3412 0.0103793 38.9198L0.772012 32.7983C0.883011 31.9066 0.907435 31 0.844664 30.1037L0.305865 22.4195C0.0905171 20.7095 0.65914 18.8563 1.7914 17.6003C2.67619 16.6189 3.83175 16.0936 5.05578 16.119L6.30269 16.1355C6.913 16.1408 7.52423 15.984 8.05617 15.6741L8.4533 15.4426C9.10455 15.0631 9.58432 14.457 9.80424 13.7362L10.5494 11.2937C10.6009 11.1249 10.7798 11.0298 10.9479 11.0814C11.1166 11.1329 11.2116 11.3113 11.1602 11.4799L10.415 13.9225C10.1481 14.7977 9.56551 15.5336 8.77488 15.9943L8.37775 16.2258C7.74583 16.594 7.02338 16.7824 6.29428 16.774L5.04467 16.7575C3.72325 16.7245 2.80228 17.4326 2.26567 18.0279C1.25418 19.1499 0.746658 20.8089 0.941122 22.3573L1.48158 30.059C1.54736 30.9965 1.52179 31.9446 1.40571 32.877L0.644073 38.9987C0.614142 39.2385 0.688762 39.4797 0.848622 39.6608C1.00858 39.8419 1.2389 39.9458 1.48044 39.9458H4.2369C4.41328 39.9458 4.55619 40.0887 4.55619 40.265C4.55619 40.4414 4.41326 40.5843 4.23689 40.5843Z" fill="#540000"/>
    <path d="M22.5177 41.2236H20.8095C20.6331 41.2236 20.4902 41.0807 20.4902 40.9044C20.4902 40.728 20.6331 40.5851 20.8095 40.5851H22.5177C22.7771 40.5851 23.0182 40.4682 23.1791 40.2646C23.3399 40.061 23.3977 39.7994 23.3376 39.547L22.1184 34.4245C22.1156 34.4132 22.1135 34.4017 22.1121 34.3901C21.9942 33.4428 21.9682 32.4797 22.035 31.5274L22.6561 25.0885C22.9613 22.6584 22.0192 19.8763 19.2292 19.1186C18.9172 19.0338 18.6161 18.9163 18.3626 18.8126L17.3695 18.4058C16.5827 18.0836 15.9366 17.489 15.5502 16.7315L15.1706 15.9874C14.8825 15.4222 14.7985 14.7697 14.934 14.1501L15.3045 12.4554C15.3421 12.283 15.5121 12.1738 15.6846 12.2116C15.8569 12.2493 15.9659 12.4195 15.9283 12.5917L15.5578 14.2866C15.4538 14.7623 15.5183 15.2633 15.7396 15.6973L16.1191 16.4414C16.436 17.0628 16.966 17.5506 17.6114 17.8149L18.6045 18.2217C18.84 18.318 19.1181 18.4267 19.3965 18.5023C22.5564 19.3606 23.6293 22.464 23.2907 25.159L22.6713 31.5804C22.6085 32.4776 22.6326 33.3931 22.7436 34.2939L23.9588 39.3992C24.0644 39.8429 23.9629 40.3026 23.6802 40.6605C23.3975 41.0184 22.9737 41.2236 22.5177 41.2236Z" fill="#540000"/>
    <path d="M20.0347 43.5823H5.48267C5.07909 43.5823 4.68767 43.4146 4.40881 43.1223C4.12736 42.8273 3.98289 42.4413 4.00191 42.0355C4.14378 39.0132 4.79369 37.0366 5.31575 35.4485C5.70124 34.276 6.00567 33.35 6.00567 32.3534C6.00567 31.2622 5.71829 30.2294 5.3856 29.0336C4.93265 27.4056 4.36892 25.3794 4.26726 22.3297C4.26134 22.1536 4.39947 22.0059 4.57574 22.0001C4.74453 21.9944 4.8996 22.1322 4.90543 22.3085C5.00458 25.2818 5.55699 27.2672 6.0008 28.8624C6.34606 30.1033 6.64425 31.175 6.64425 32.3534C6.64425 33.4523 6.30979 34.4697 5.92242 35.6478C5.41241 37.1993 4.77758 39.1301 4.63987 42.0655C4.62906 42.2953 4.71107 42.5141 4.87081 42.6815C5.03211 42.8506 5.24945 42.9437 5.48268 42.9437H20.0347C20.2693 42.9437 20.4871 42.8495 20.6481 42.6783C20.8099 42.5063 20.8911 42.2817 20.8766 42.0458C20.6981 39.1348 19.8905 37.2149 19.2416 35.6721C18.7437 34.4881 18.3136 33.4656 18.3136 32.3534C18.3136 31.1739 18.5322 30.2695 18.7853 29.2225C19.1103 27.8779 19.5147 26.2046 19.6135 23.2391C19.6193 23.0628 19.7666 22.9246 19.9432 22.9306C20.1195 22.9364 20.2576 23.0841 20.2517 23.2603C20.1508 26.291 19.7377 27.9996 19.406 29.3726C19.1525 30.4215 18.9522 31.25 18.9522 32.3534C18.9522 33.3369 19.3397 34.2581 19.8302 35.4245C20.4979 37.0119 21.3288 38.9874 21.514 42.0068C21.539 42.4142 21.3929 42.8184 21.1133 43.1158C20.8303 43.4166 20.4473 43.5823 20.0347 43.5823Z" fill="#540000"/>
    <path d="M15.2833 14.3727C15.1524 14.3727 15.0295 14.2915 14.9827 14.1611C14.9233 13.9951 15.0096 13.8123 15.1755 13.7527C16.6441 13.226 17.7597 12.0202 18.0868 10.606L18.9865 6.68369C19.262 5.5293 19.07 4.34059 18.4464 3.33409C17.8229 2.32749 16.8441 1.62613 15.6904 1.35933C13.3367 0.81502 10.9668 2.28371 10.4062 4.63296L9.49146 8.61781C9.15907 10.0557 9.59581 11.6813 10.6042 12.7597C10.7247 12.8885 10.7178 13.0905 10.589 13.211C10.4603 13.3317 10.2583 13.3246 10.1377 13.1958C8.98821 11.9665 8.49026 10.1132 8.86921 8.47448L9.78446 4.48745C10.4269 1.79543 13.1403 0.114085 15.8343 0.737171C17.155 1.04263 18.2754 1.84543 18.9892 2.99775C19.703 4.15007 19.923 5.51079 19.6083 6.8292L18.709 10.7493C18.3334 12.3735 17.0621 13.7545 15.3911 14.3539C15.3556 14.3667 15.3191 14.3727 15.2833 14.3727Z" fill="#540000"/>
    <path d="M15.2817 14.3725C15.1472 14.3725 15.0221 14.2869 14.9782 14.152C14.9236 13.9843 15.0152 13.8042 15.1829 13.7495C16.634 13.2769 17.7461 12.0722 18.0852 10.6058C18.1248 10.4339 18.2964 10.327 18.4682 10.3667C18.64 10.4064 18.7471 10.5779 18.7074 10.7497C18.318 12.433 17.0434 13.8151 15.3806 14.3567C15.3478 14.3674 15.3145 14.3725 15.2817 14.3725Z" fill="#540000"/>
</svg>
