<svg width="19" height="19" viewBox="0 0 19 19" fill="none" xmlns="http://www.w3.org/2000/svg">
    <path d="M9.5 19C4.25379 19 0 14.7462 0 9.5C0 4.2538 4.25379 0 9.5 0C14.7462 0 19 4.2538 19 9.5C19 14.7462 14.7462 19 9.5 19ZM12.5557 9.35368L7.92444 5.98415C7.89905 5.96591 7.86912 5.95502 7.83795 5.95267C7.80677 5.95033 7.77555 5.95663 7.74772 5.97087C7.71988 5.98512 7.69652 6.00676 7.68019 6.03341C7.66385 6.06007 7.65518 6.09072 7.65513 6.12199V12.8568C7.65503 12.8881 7.66361 12.9189 7.67991 12.9456C7.69621 12.9724 7.7196 12.9941 7.74749 13.0084C7.77537 13.0227 7.80667 13.0289 7.8379 13.0265C7.86914 13.0241 7.89909 13.013 7.92444 12.9946L12.5557 9.62723C12.5776 9.61176 12.5954 9.59126 12.6077 9.56746C12.6201 9.54366 12.6265 9.51726 12.6265 9.49046C12.6265 9.46366 12.6201 9.43725 12.6077 9.41345C12.5954 9.38965 12.5776 9.36916 12.5557 9.35368Z" fill="#255FD5"/>
</svg>
