<svg width="25" height="25" viewBox="0 0 25 25" fill="none" xmlns="http://www.w3.org/2000/svg">
    <rect x="3.02948" y="3.0289" width="18.9412" height="18.9412" rx="9.47059" fill="#595959"/>
    <path d="M12.4998 5.92749C11.6284 5.92749 10.7926 6.27366 10.1764 6.88985C9.56024 7.50604 9.21406 8.34178 9.21406 9.2132C9.21406 10.0846 9.56024 10.9204 10.1764 11.5366C10.7926 12.1527 11.6284 12.4989 12.4998 12.4989C13.3712 12.4989 14.2069 12.1527 14.8231 11.5366C15.4393 10.9204 15.7855 10.0846 15.7855 9.2132C15.7855 8.34178 15.4393 7.50604 14.8231 6.88985C14.2069 6.27366 13.3712 5.92749 12.4998 5.92749ZM8.40003 13.3203C8.18369 13.3195 7.96932 13.3613 7.76919 13.4435C7.56907 13.5257 7.38713 13.6465 7.23381 13.7991C7.0805 13.9518 6.95882 14.1332 6.87576 14.3329C6.7927 14.5327 6.74989 14.7469 6.74978 14.9632C6.74978 16.3522 7.43403 17.3996 8.50353 18.0822C9.5566 18.7533 10.976 19.0703 12.4998 19.0703C14.0235 19.0703 15.443 18.7533 16.496 18.0822C17.5655 17.4004 18.2498 16.3514 18.2498 14.9632C18.2498 14.5275 18.0767 14.1096 17.7686 13.8015C17.4605 13.4934 17.0426 13.3203 16.6069 13.3203H8.40003Z" fill="white"/>
    <rect x="1" y="1" width="23" height="23" rx="11.5" stroke="#595959" stroke-width="1.5"/>
</svg>
