<svg width="11" height="14" viewBox="0 0 11 14" fill="none" xmlns="http://www.w3.org/2000/svg">
    <path d="M5.5 2.29167C4.4122 2.29167 3.34884 2.61424 2.44437 3.21858C1.5399 3.82293 0.834947 4.68191 0.418665 5.68691C0.00238307 6.6919 -0.106535 7.79777 0.105683 8.86466C0.317902 9.93156 0.841726 10.9116 1.61091 11.6808C2.3801 12.4499 3.36011 12.9738 4.427 13.186C5.4939 13.3982 6.59977 13.2893 7.60476 12.873C8.60975 12.4567 9.46873 11.7518 10.0731 10.8473C10.6774 9.94283 11 8.87946 11 7.79167C10.9983 6.33349 10.4183 4.93551 9.38725 3.90442C8.35616 2.87333 6.95818 2.29333 5.5 2.29167ZM5.5 11.9167C4.68415 11.9167 3.88663 11.6747 3.20827 11.2215C2.52992 10.7682 2.00121 10.124 1.689 9.37023C1.37679 8.61649 1.2951 7.78709 1.45426 6.98692C1.61343 6.18675 2.00629 5.45174 2.58319 4.87485C3.16008 4.29796 3.89508 3.90509 4.69525 3.74593C5.49543 3.58676 6.32483 3.66845 7.07857 3.98066C7.83231 4.29287 8.47655 4.82159 8.92981 5.49994C9.38307 6.17829 9.625 6.97582 9.625 7.79167C9.62379 8.88531 9.1888 9.93382 8.41548 10.7071C7.64215 11.4805 6.59365 11.9155 5.5 11.9167ZM7.59057 5.47193C7.65467 5.5358 7.70552 5.61169 7.74022 5.69526C7.77492 5.77883 7.79278 5.86842 7.79278 5.95891C7.79278 6.04939 7.77492 6.13898 7.74022 6.22255C7.70552 6.30612 7.65467 6.38201 7.59057 6.44588L5.98641 8.05005C5.85725 8.1792 5.68208 8.25176 5.49943 8.25176C5.31678 8.25176 5.1416 8.1792 5.01245 8.05005C4.88329 7.9209 4.81074 7.74572 4.81074 7.56307C4.81074 7.38042 4.88329 7.20525 5.01245 7.07609L6.61662 5.47193C6.68049 5.40783 6.75638 5.35698 6.83995 5.32228C6.92352 5.28758 7.01311 5.26972 7.10359 5.26972C7.19408 5.26972 7.28367 5.28758 7.36724 5.32228C7.45081 5.35698 7.5267 5.40783 7.59057 5.47193ZM3.4375 0.6875C3.4375 0.505164 3.50993 0.330295 3.63887 0.201364C3.7678 0.0724328 3.94267 0 4.125 0H6.875C7.05734 2.71702e-09 7.23221 0.0724328 7.36114 0.201364C7.49007 0.330295 7.5625 0.505164 7.5625 0.6875C7.5625 0.869836 7.49007 1.0447 7.36114 1.17364C7.23221 1.30257 7.05734 1.375 6.875 1.375H4.125C3.94267 1.375 3.7678 1.30257 3.63887 1.17364C3.50993 1.0447 3.4375 0.869836 3.4375 0.6875Z" fill="#222E58"/>
</svg>
